<svg width="164" height="34" viewBox="0 0 164 34" fill="none" xmlns="http://www.w3.org/2000/svg">
	<path d="M17 3C9.268 3 3 9.268 3 17C3 24.732 9.268 31 17 31C20.8157 31 24.4584 29.4955 27.1612 26.8149L24.2416 23.8953C22.2844 25.8314 19.7049 26.921 17 26.921C11.5251 26.921 7.079 22.4749 7.079 17C7.079 11.5251 11.5251 7.079 17 7.079C22.4749 7.079 26.921 11.5251 26.921 17V18.652H17V22.731H31V17C31 9.268 24.732 3 17 3Z" fill="#FF532E"/>
	<text x="38" y="23" fill="#1F2937" font-family="Outfit, Poppins, Segoe UI, Arial, sans-serif" font-size="20" font-weight="700">IndraMart</text>
</svg>
